<svg width="63" height="198" viewBox="0 0 63 198" fill="none" xmlns="http://www.w3.org/2000/svg">
<path d="M4.11854 65.596V193.432C4.11854 195.788 6.03824 197.708 8.39427 197.708H54.9911C57.3471 197.708 59.2669 195.788 59.2669 193.432V65.596C59.2669 63.24 57.3471 61.3203 54.9911 61.3203H8.39427C6.03824 61.3203 4.11854 63.24 4.11854 65.596ZM55.253 6.25916C50.4537 2.50698 42.6002 0.5 31.6927 0.5C20.7852 0.5 12.9318 2.50698 8.1325 6.25916C3.33319 10.0113 0.889893 16.3813 0.889893 25.1073C0.889893 33.8334 3.24593 39.8543 8.1325 43.6937C13.0191 47.5332 20.7852 49.4529 31.6927 49.4529C42.6002 49.4529 50.5409 47.5332 55.253 43.6937C59.965 39.8543 62.4083 33.6588 62.4083 25.1073C62.4083 16.5559 60.0523 10.1859 55.253 6.25916Z" fill="white"/>
</svg>
