<svg width="77" height="196" viewBox="0 0 77 196" fill="none" xmlns="http://www.w3.org/2000/svg">
<path d="M74.27 157.891C72.3503 158.153 70.3433 158.327 68.3363 158.327C63.7988 158.327 60.6575 157.018 58.7377 154.488C56.818 151.957 56.1199 147.856 56.1199 142.01V4.48766C56.1199 2.13164 54.2002 0.211914 51.8442 0.211914H5.24728C2.89126 0.211914 0.971558 2.13164 0.971558 4.48766V149.863C0.971558 166.268 4.37469 177.873 11.3555 184.942C18.3363 192.01 29.5929 195.5 45.3869 195.5C51.3206 195.5 57.2543 194.715 63.0135 193.318C67.8128 192.097 71.8267 190.701 74.8808 188.868C76.1025 188.083 76.8878 186.687 76.8006 185.291V157.455C75.928 157.716 75.0553 157.891 74.1827 158.065L74.27 157.891Z" fill="white"/>
</svg>
