<svg width="150" height="143" viewBox="0 0 150 143" fill="none" xmlns="http://www.w3.org/2000/svg">
<path d="M139.964 33.0749C133.943 22.691 124.955 14.314 114.135 8.99112C103.053 3.49374 90.0512 0.701416 75.1297 0.701416C60.2082 0.701416 47.73 3.49374 36.5607 8.99112C25.6532 14.314 16.5782 22.691 10.3827 33.0749C4.1 43.7206 0.958618 56.4606 0.958618 71.5566C0.958618 86.3908 4.1 99.2181 10.3827 109.864C16.4909 120.335 25.6532 128.799 36.5607 134.035C47.73 139.619 60.5573 142.412 75.1297 142.412C89.7021 142.412 102.966 139.619 114.135 134.035C124.955 128.712 133.943 120.248 139.964 109.864C146.247 99.2181 149.301 86.3908 149.301 71.5566C149.301 56.4606 146.247 43.7206 139.964 33.0749ZM91.7091 91.1029C90.2257 95.9022 88.2187 99.3053 85.4264 101.487C82.6341 103.668 79.2309 104.628 75.0424 104.628C71.3775 104.628 67.7999 103.581 64.7458 101.487C61.9534 99.3053 59.7719 95.9022 58.2885 91.1029C56.8051 86.3036 56.107 79.7591 56.107 71.6439C56.107 63.5287 56.8051 56.8969 58.2885 52.0104C59.7719 47.1238 61.8662 43.7206 64.7458 41.6264C67.7999 39.5322 71.3775 38.485 75.0424 38.5723C79.2309 38.5723 82.6341 39.6194 85.4264 41.5391C88.2187 43.4589 90.2257 47.0365 91.7091 51.9231C93.1925 56.8097 93.8906 63.3542 93.8906 71.5566C93.8906 79.7591 93.1053 86.3036 91.7091 91.1029Z" fill="white"/>
</svg>
