<svg width="117" height="184" viewBox="0 0 117 184" fill="none" xmlns="http://www.w3.org/2000/svg">
<path d="M116.527 170.934C116.788 172.592 116.003 174.162 114.52 174.948C110.506 177.391 105.27 179.311 99.0746 180.794C91.9193 182.539 84.5895 183.412 77.2596 183.412C65.654 183.412 55.7936 181.754 47.7657 178.7C39.7378 175.646 33.455 170.759 29.1793 163.953C24.9035 157.147 22.8093 148.246 22.8093 136.99V82.1902H4.65918C2.30316 82.1902 0.470703 80.2705 0.470703 77.9145V48.4206C0.470703 46.0646 2.39042 44.2321 4.65918 44.2321H22.8093V17.705C22.8093 15.8726 24.0309 14.2146 25.8634 13.6911L72.4603 0.689309C74.7291 0.0784881 77.0851 1.38739 77.6959 3.65615C77.7832 4.00519 77.8704 4.44149 77.8704 4.79053V44.2321H110.593C112.949 44.2321 114.869 46.0646 114.869 48.4206V77.9145C114.869 80.2705 113.036 82.1902 110.68 82.1902H77.8704V128.264C77.8704 134.634 79.2666 139.084 82.0589 141.876C84.8512 144.668 89.0397 145.977 94.7116 145.977C98.202 145.977 101.692 145.716 105.096 144.843C107.975 144.145 110.767 142.923 113.298 141.353L116.527 170.846V170.934Z" fill="white"/>
</svg>
