<svg width="158" height="137" viewBox="0 0 158 137" fill="none" xmlns="http://www.w3.org/2000/svg">
<path d="M101.444 3.63632L79.2796 100.408L57.4646 3.63632C57.0283 1.7166 55.2831 0.320435 53.3634 0.320435H5.10856C2.75253 0.320435 0.832764 2.24015 0.832764 4.59618C0.832764 5.03248 0.832753 5.55604 1.09453 5.99234L44.5501 133.828C45.1609 135.574 46.7316 136.708 48.564 136.708H109.821C111.653 136.708 113.224 135.574 113.835 133.828L157.29 5.99234C158.075 3.81083 156.854 1.36755 154.672 0.582212C154.236 0.407692 153.8 0.320435 153.276 0.320435H105.632C103.625 0.320435 101.967 1.7166 101.531 3.63632H101.444Z" fill="white"/>
</svg>
