<svg width="1080" height="848" viewBox="0 0 1080 848" fill="none" xmlns="http://www.w3.org/2000/svg">
<g filter="url(#filter0_f_269_370)">
<ellipse cx="540" cy="424" rx="250" ry="124" fill="#F57423"/>
</g>
<g filter="url(#filter1_f_269_370)">
<ellipse cx="540" cy="425" rx="298" ry="19" fill="white"/>
</g>
<g filter="url(#filter2_f_269_370)">
<path d="M349.556 498.434V498.473L349.562 498.512C349.791 499.959 349.11 501.32 347.815 502.006L347.802 502.013L347.789 502.021C343.836 504.427 338.655 506.331 332.488 507.808L332.485 507.808C325.369 509.544 318.079 510.412 310.789 510.412C299.229 510.412 289.431 508.76 281.473 505.733C273.534 502.712 267.343 497.891 263.132 491.187C258.923 484.487 256.839 475.689 256.839 464.49V409.69V409.19H256.339H238.188C236.122 409.19 234.5 407.508 234.5 405.414V375.921C234.5 373.847 236.189 372.232 238.188 372.232H256.339H256.839V371.732V345.205C256.839 343.596 257.912 342.135 259.528 341.672C259.529 341.672 259.53 341.672 259.53 341.672L306.12 328.672C306.12 328.672 306.121 328.672 306.122 328.672C308.13 328.132 310.203 329.292 310.741 331.282C310.826 331.623 310.9 332.007 310.9 332.291V371.732V372.232H311.4H344.122C346.216 372.232 347.898 373.854 347.898 375.921V405.414C347.898 407.508 346.276 409.19 344.21 409.19H311.4H310.9V409.69V455.764C310.9 462.192 312.307 466.802 315.235 469.73C318.158 472.653 322.501 473.977 328.241 473.977C331.753 473.977 335.288 473.714 338.745 472.828C341.426 472.178 344.027 471.085 346.415 469.685L349.556 498.374V498.434Z" fill="#F57423" stroke="#FF6200"/>
<path d="M500.061 401.826L500.063 401.829C506.29 412.381 509.33 425.029 509.33 440.057C509.33 454.822 506.29 467.557 500.063 478.11L500.061 478.113C494.089 488.413 485.174 496.807 474.444 502.086L474.441 502.088C463.353 507.631 450.169 510.412 435.659 510.412C421.151 510.412 408.403 507.632 397.314 502.088L397.306 502.084C386.489 496.892 377.402 488.497 371.344 478.112L371.343 478.11C365.114 467.555 361.988 454.82 361.988 440.057C361.988 425.032 365.114 412.384 371.342 401.83C377.488 391.53 386.49 383.22 397.309 377.94L397.311 377.94C408.403 372.481 420.804 369.701 435.659 369.701C450.518 369.701 463.441 372.482 474.442 377.939L474.444 377.94C485.176 383.219 494.09 391.528 500.061 401.826ZM452.716 459.751L452.716 459.751L452.719 459.743C454.133 454.881 454.92 448.285 454.92 440.057C454.92 431.834 454.221 425.233 452.717 420.278C451.223 415.356 449.173 411.644 446.239 409.627C443.355 407.644 439.852 406.573 435.578 406.572C431.811 406.484 428.132 407.561 424.992 409.714L424.992 409.714L424.981 409.722C421.981 411.904 419.84 415.421 418.339 420.365C416.835 425.32 416.136 432.009 416.136 440.144C416.136 448.279 416.835 454.881 418.34 459.751C419.844 464.616 422.072 468.119 424.967 470.381L424.979 470.39L424.992 470.399C428.134 472.553 431.811 473.628 435.572 473.628C439.84 473.628 443.361 472.648 446.264 470.381C449.167 468.112 451.217 464.602 452.716 459.751Z" fill="#F57423" stroke="#FF6200"/>
<path d="M601.821 474.053C602.479 473.922 603.152 473.787 603.83 473.612V500.791V500.806L603.831 500.822C603.905 502.013 603.231 503.243 602.146 503.944C599.156 505.736 595.201 507.117 590.423 508.333C584.699 509.721 578.805 510.5 572.916 510.5C557.18 510.5 546.085 507.02 539.241 500.09C532.397 493.162 529.001 481.719 529.001 465.363V319.988C529.001 317.908 530.697 316.212 532.777 316.212H579.373C581.453 316.212 583.149 317.908 583.149 319.988V457.51C583.149 463.359 583.839 467.615 585.869 470.29C587.915 472.987 591.233 474.327 595.866 474.327C597.576 474.327 599.283 474.202 600.933 474.006L600.808 474.256L601.81 474.056L601.821 474.053Z" fill="#F57423" stroke="#FF6200"/>
<path d="M621.148 503.932V376.096C621.148 374.016 622.844 372.32 624.924 372.32H671.52C673.6 372.32 675.296 374.016 675.296 376.096V503.932C675.296 506.012 673.6 507.708 671.52 507.708H624.924C622.844 507.708 621.148 506.012 621.148 503.932ZM648.222 311.5C659.086 311.5 666.801 313.502 671.47 317.15C676.108 320.947 678.438 327.143 678.438 335.607C678.438 344.067 676.023 350.093 671.466 353.806C666.892 357.534 659.097 359.453 648.222 359.453C637.353 359.453 629.725 357.536 624.971 353.801C620.248 350.09 617.919 344.244 617.919 335.607C617.919 326.965 620.338 320.774 624.97 317.153C629.638 313.503 637.355 311.5 648.222 311.5Z" fill="#F57423" stroke="#FF6200"/>
<path d="M766.321 472.018L767.296 472.019L789.371 375.636H789.459L789.548 375.247C789.935 373.545 791.398 372.32 793.161 372.32H840.805C841.267 372.32 841.64 372.396 842.016 372.546L842.024 372.55L842.032 372.553C843.967 373.249 845.036 375.414 844.349 377.323L844.346 377.331L800.892 505.163C800.892 505.164 800.892 505.164 800.891 505.165C800.349 506.713 798.964 507.708 797.35 507.708H736.093C734.479 507.708 733.095 506.713 732.552 505.165C732.552 505.165 732.552 505.164 732.551 505.163L689.097 377.331L689.08 377.281L689.053 377.235C688.874 376.937 688.862 376.557 688.862 376.096C688.862 374.016 690.558 372.32 692.638 372.32H740.893C742.575 372.32 744.121 373.551 744.506 375.247L766.321 472.018Z" fill="#F57423" stroke="#FF6200"/>
</g>
<path d="M350.056 498.434C350.318 500.092 349.532 501.662 348.049 502.448C344.035 504.891 338.799 506.811 332.604 508.294C325.449 510.039 318.119 510.912 310.789 510.912C299.183 510.912 289.323 509.254 281.295 506.2C273.267 503.146 266.984 498.259 262.709 491.453C258.433 484.647 256.339 475.746 256.339 464.49V409.69H238.188C235.832 409.69 234 407.771 234 405.414V375.921C234 373.565 235.92 371.732 238.188 371.732H256.339V345.205C256.339 343.373 257.56 341.715 259.393 341.191L305.99 328.189C308.258 327.578 310.614 328.887 311.225 331.156C311.312 331.505 311.4 331.941 311.4 332.291V371.732H344.122C346.478 371.732 348.398 373.565 348.398 375.921V405.414C348.398 407.771 346.566 409.69 344.21 409.69H311.4V455.764C311.4 462.134 312.796 466.584 315.588 469.376C318.381 472.168 322.569 473.477 328.241 473.477C331.731 473.477 335.222 473.216 338.625 472.343C341.504 471.645 344.297 470.423 346.827 468.853L350.056 498.346V498.434Z" fill="#191818" stroke="#F57423" stroke-width="3"/>
<path d="M500.493 401.575C494.472 391.191 485.485 382.814 474.664 377.491C463.582 371.994 450.58 369.201 435.659 369.201C420.738 369.201 408.259 371.994 397.09 377.491C386.183 382.814 377.107 391.191 370.912 401.575C364.629 412.221 361.488 424.961 361.488 440.057C361.488 454.891 364.629 467.718 370.912 478.364C377.02 488.835 386.183 497.299 397.09 502.535C408.259 508.119 421.087 510.912 435.659 510.912C450.231 510.912 463.495 508.119 474.664 502.535C485.485 497.212 494.472 488.748 500.493 478.364C506.776 467.718 509.83 454.891 509.83 440.057C509.83 424.961 506.776 412.221 500.493 401.575ZM452.238 459.603C450.755 464.402 448.748 467.805 445.956 469.987C443.163 472.168 439.76 473.128 435.572 473.128C431.907 473.128 428.329 472.081 425.275 469.987C422.483 467.805 420.301 464.402 418.818 459.603C417.334 454.804 416.636 448.259 416.636 440.144C416.636 432.029 417.334 425.397 418.818 420.51C420.301 415.624 422.395 412.221 425.275 410.126C428.329 408.032 431.907 406.985 435.572 407.072C439.76 407.072 443.163 408.119 445.956 410.039C448.748 411.959 450.755 415.537 452.238 420.423C453.722 425.31 454.42 431.854 454.42 440.057C454.42 448.259 453.635 454.804 452.238 459.603Z" fill="#191818" stroke="#F57423" stroke-width="3"/>
<path d="M601.799 473.391C599.88 473.653 597.873 473.827 595.866 473.827C591.328 473.827 588.187 472.518 586.267 469.988C584.347 467.457 583.649 463.356 583.649 457.51V319.988C583.649 317.632 581.729 315.712 579.373 315.712H532.777C530.421 315.712 528.501 317.632 528.501 319.988V465.363C528.501 481.768 531.904 493.373 538.885 500.442C545.866 507.51 557.122 511 572.916 511C578.85 511 584.784 510.215 590.543 508.818C595.342 507.597 599.356 506.201 602.41 504.368C603.632 503.583 604.417 502.187 604.33 500.791V472.955C603.457 473.216 602.585 473.391 601.712 473.565L601.799 473.391Z" fill="#191818" stroke="#F57423" stroke-width="3"/>
<path d="M620.648 376.096V503.932C620.648 506.288 622.568 508.208 624.924 508.208H671.52C673.876 508.208 675.796 506.288 675.796 503.932V376.096C675.796 373.74 673.876 371.82 671.52 371.82H624.924C622.568 371.82 620.648 373.74 620.648 376.096ZM671.782 316.759C666.983 313.007 659.13 311 648.222 311C637.314 311 629.461 313.007 624.662 316.759C619.862 320.511 617.419 326.881 617.419 335.607C617.419 344.333 619.775 350.354 624.662 354.194C629.548 358.033 637.314 359.953 648.222 359.953C659.13 359.953 667.07 358.033 671.782 354.194C676.494 350.354 678.938 344.159 678.938 335.607C678.938 327.056 676.582 320.686 671.782 316.759Z" fill="#191818" stroke="#F57423" stroke-width="3"/>
<g filter="url(#filter3_d_269_370)">
<path d="M788.973 375.136L766.809 471.908L744.994 375.136C744.558 373.217 742.812 371.82 740.893 371.82H692.638C690.282 371.82 688.362 373.74 688.362 376.096C688.362 376.532 688.362 377.056 688.624 377.492L732.079 505.328C732.69 507.074 734.261 508.208 736.093 508.208H797.35C799.182 508.208 800.753 507.074 801.364 505.328L844.819 377.492C845.605 375.311 844.383 372.868 842.202 372.082C841.765 371.908 841.329 371.82 840.805 371.82H793.161C791.154 371.82 789.497 373.217 789.06 375.136H788.973Z" fill="#191818"/>
<path d="M788.973 375.136L766.809 471.908L744.994 375.136C744.558 373.217 742.812 371.82 740.893 371.82H692.638C690.282 371.82 688.362 373.74 688.362 376.096C688.362 376.532 688.362 377.056 688.624 377.492L732.079 505.328C732.69 507.074 734.261 508.208 736.093 508.208H797.35C799.182 508.208 800.753 507.074 801.364 505.328L844.819 377.492C845.605 375.311 844.383 372.868 842.202 372.082C841.765 371.908 841.329 371.82 840.805 371.82H793.161C791.154 371.82 789.497 373.217 789.06 375.136H788.973Z" stroke="#F57423" stroke-width="3"/>
</g>
<g filter="url(#filter4_f_269_370)">
<path d="M350.056 498.434C350.318 500.092 349.532 501.662 348.049 502.448C344.035 504.891 338.799 506.811 332.604 508.294C325.449 510.039 318.119 510.912 310.789 510.912C299.183 510.912 289.323 509.254 281.295 506.2C273.267 503.146 266.984 498.259 262.709 491.453C258.433 484.647 256.339 475.746 256.339 464.49V409.69H238.188C235.832 409.69 234 407.771 234 405.414V375.921C234 373.565 235.92 371.732 238.188 371.732H256.339V345.205C256.339 343.373 257.56 341.715 259.393 341.191L305.99 328.189C308.258 327.578 310.614 328.887 311.225 331.156C311.312 331.505 311.4 331.941 311.4 332.291V371.732H344.122C346.478 371.732 348.398 373.565 348.398 375.921V405.414C348.398 407.771 346.566 409.69 344.21 409.69H311.4V455.764C311.4 462.134 312.796 466.584 315.588 469.376C318.381 472.168 322.569 473.477 328.241 473.477C331.731 473.477 335.222 473.216 338.625 472.343C341.504 471.645 344.297 470.423 346.827 468.853L350.056 498.346V498.434Z" stroke="#F57423" stroke-width="9"/>
<path d="M500.493 401.575C494.472 391.191 485.485 382.814 474.664 377.491C463.582 371.994 450.58 369.201 435.659 369.201C420.738 369.201 408.259 371.994 397.09 377.491C386.183 382.814 377.107 391.191 370.912 401.575C364.629 412.221 361.488 424.961 361.488 440.057C361.488 454.891 364.629 467.718 370.912 478.364C377.02 488.835 386.183 497.299 397.09 502.535C408.259 508.119 421.087 510.912 435.659 510.912C450.231 510.912 463.495 508.119 474.664 502.535C485.485 497.212 494.472 488.748 500.493 478.364C506.776 467.718 509.83 454.891 509.83 440.057C509.83 424.961 506.776 412.221 500.493 401.575V401.575ZM452.238 459.603C450.755 464.402 448.748 467.805 445.956 469.987C443.163 472.168 439.76 473.128 435.572 473.128C431.907 473.128 428.329 472.081 425.275 469.987C422.483 467.805 420.301 464.402 418.818 459.603C417.334 454.804 416.636 448.259 416.636 440.144C416.636 432.029 417.334 425.397 418.818 420.51C420.301 415.624 422.395 412.221 425.275 410.126C428.329 408.032 431.907 406.985 435.572 407.072C439.76 407.072 443.163 408.119 445.956 410.039C448.748 411.959 450.755 415.537 452.238 420.423C453.722 425.31 454.42 431.854 454.42 440.057C454.42 448.259 453.635 454.804 452.238 459.603Z" stroke="#F57423" stroke-width="9"/>
<path d="M601.799 473.391C599.88 473.653 597.873 473.827 595.866 473.827C591.328 473.827 588.187 472.518 586.267 469.988C584.347 467.457 583.649 463.356 583.649 457.51V319.988C583.649 317.632 581.729 315.712 579.373 315.712H532.777C530.421 315.712 528.501 317.632 528.501 319.988V465.363C528.501 481.768 531.904 493.373 538.885 500.442C545.866 507.51 557.122 511 572.916 511C578.85 511 584.784 510.215 590.543 508.818C595.342 507.597 599.356 506.201 602.41 504.368C603.632 503.583 604.417 502.187 604.33 500.791V472.955C603.457 473.216 602.585 473.391 601.712 473.565L601.799 473.391Z" stroke="#F57423" stroke-width="9"/>
<path d="M620.648 376.096V503.932C620.648 506.288 622.568 508.208 624.924 508.208H671.52C673.876 508.208 675.796 506.288 675.796 503.932V376.096C675.796 373.74 673.876 371.82 671.52 371.82H624.924C622.568 371.82 620.648 373.74 620.648 376.096ZM671.782 316.759C666.983 313.007 659.13 311 648.222 311C637.314 311 629.461 313.007 624.662 316.759C619.862 320.511 617.419 326.881 617.419 335.607C617.419 344.333 619.775 350.354 624.662 354.194C629.548 358.033 637.314 359.953 648.222 359.953C659.13 359.953 667.07 358.033 671.782 354.194C676.494 350.354 678.938 344.159 678.938 335.607C678.938 327.056 676.582 320.686 671.782 316.759Z" stroke="#F57423" stroke-width="9"/>
<g filter="url(#filter5_d_269_370)">
<path d="M788.973 375.136L766.809 471.908L744.994 375.136C744.558 373.217 742.812 371.82 740.893 371.82H692.638C690.282 371.82 688.362 373.74 688.362 376.096C688.362 376.532 688.362 377.056 688.624 377.492L732.079 505.328C732.69 507.074 734.261 508.208 736.093 508.208H797.35C799.182 508.208 800.753 507.074 801.364 505.328L844.819 377.492C845.605 375.311 844.383 372.868 842.202 372.082C841.765 371.908 841.329 371.82 840.805 371.82H793.161C791.154 371.82 789.497 373.217 789.06 375.136H788.973Z" stroke="#F57423" stroke-width="9" shape-rendering="crispEdges"/>
</g>
</g>
<g filter="url(#filter6_f_269_370)">
<path d="M350.056 498.434C350.318 500.092 349.532 501.662 348.049 502.448C344.035 504.891 338.799 506.811 332.604 508.294C325.449 510.039 318.119 510.912 310.789 510.912C299.183 510.912 289.323 509.254 281.295 506.2C273.267 503.146 266.984 498.259 262.709 491.453C258.433 484.647 256.339 475.746 256.339 464.49V409.69H238.188C235.832 409.69 234 407.771 234 405.414V375.921C234 373.565 235.92 371.732 238.188 371.732H256.339V345.205C256.339 343.373 257.56 341.715 259.393 341.191L305.99 328.189C308.258 327.578 310.614 328.887 311.225 331.156C311.312 331.505 311.4 331.941 311.4 332.291V371.732H344.122C346.478 371.732 348.398 373.565 348.398 375.921V405.414C348.398 407.771 346.566 409.69 344.21 409.69H311.4V455.764C311.4 462.134 312.796 466.584 315.588 469.376C318.381 472.168 322.569 473.477 328.241 473.477C331.731 473.477 335.222 473.216 338.625 472.343C341.504 471.645 344.297 470.423 346.827 468.853L350.056 498.346V498.434Z" stroke="white"/>
<path d="M500.493 401.575C494.472 391.191 485.485 382.814 474.664 377.491C463.582 371.994 450.58 369.201 435.659 369.201C420.738 369.201 408.259 371.994 397.09 377.491C386.183 382.814 377.107 391.191 370.912 401.575C364.629 412.221 361.488 424.961 361.488 440.057C361.488 454.891 364.629 467.718 370.912 478.364C377.02 488.835 386.183 497.299 397.09 502.535C408.259 508.119 421.087 510.912 435.659 510.912C450.231 510.912 463.495 508.119 474.664 502.535C485.485 497.212 494.472 488.748 500.493 478.364C506.776 467.718 509.83 454.891 509.83 440.057C509.83 424.961 506.776 412.221 500.493 401.575V401.575ZM452.238 459.603C450.755 464.402 448.748 467.805 445.956 469.987C443.163 472.168 439.76 473.128 435.572 473.128C431.907 473.128 428.329 472.081 425.275 469.987C422.483 467.805 420.301 464.402 418.818 459.603C417.334 454.804 416.636 448.259 416.636 440.144C416.636 432.029 417.334 425.397 418.818 420.51C420.301 415.624 422.395 412.221 425.275 410.126C428.329 408.032 431.907 406.985 435.572 407.072C439.76 407.072 443.163 408.119 445.956 410.039C448.748 411.959 450.755 415.537 452.238 420.423C453.722 425.31 454.42 431.854 454.42 440.057C454.42 448.259 453.635 454.804 452.238 459.603Z" stroke="white"/>
<path d="M601.799 473.391C599.88 473.653 597.873 473.827 595.866 473.827C591.328 473.827 588.187 472.518 586.267 469.988C584.347 467.457 583.649 463.356 583.649 457.51V319.988C583.649 317.632 581.729 315.712 579.373 315.712H532.777C530.421 315.712 528.501 317.632 528.501 319.988V465.363C528.501 481.768 531.904 493.373 538.885 500.442C545.866 507.51 557.122 511 572.916 511C578.85 511 584.784 510.215 590.543 508.818C595.342 507.597 599.356 506.201 602.41 504.368C603.632 503.583 604.417 502.187 604.33 500.791V472.955C603.457 473.216 602.585 473.391 601.712 473.565L601.799 473.391Z" stroke="white"/>
<path d="M620.648 376.096V503.932C620.648 506.288 622.568 508.208 624.924 508.208H671.52C673.876 508.208 675.796 506.288 675.796 503.932V376.096C675.796 373.74 673.876 371.82 671.52 371.82H624.924C622.568 371.82 620.648 373.74 620.648 376.096ZM671.782 316.759C666.983 313.007 659.13 311 648.222 311C637.314 311 629.461 313.007 624.662 316.759C619.862 320.511 617.419 326.881 617.419 335.607C617.419 344.333 619.775 350.354 624.662 354.194C629.548 358.033 637.314 359.953 648.222 359.953C659.13 359.953 667.07 358.033 671.782 354.194C676.494 350.354 678.938 344.159 678.938 335.607C678.938 327.056 676.582 320.686 671.782 316.759Z" stroke="white"/>
<g filter="url(#filter7_d_269_370)">
<path d="M788.973 375.136L766.809 471.908L744.994 375.136C744.558 373.217 742.812 371.82 740.893 371.82H692.638C690.282 371.82 688.362 373.74 688.362 376.096C688.362 376.532 688.362 377.056 688.624 377.492L732.079 505.328C732.69 507.074 734.261 508.208 736.093 508.208H797.35C799.182 508.208 800.753 507.074 801.364 505.328L844.819 377.492C845.605 375.311 844.383 372.868 842.202 372.082C841.765 371.908 841.329 371.82 840.805 371.82H793.161C791.154 371.82 789.497 373.217 789.06 375.136H788.973Z" stroke="white" shape-rendering="crispEdges"/>
</g>
</g>
<defs>
<filter id="filter0_f_269_370" x="-10" y="0" width="1100" height="848" filterUnits="userSpaceOnUse" color-interpolation-filters="sRGB">
<feFlood flood-opacity="0" result="BackgroundImageFix"/>
<feBlend mode="normal" in="SourceGraphic" in2="BackgroundImageFix" result="shape"/>
<feGaussianBlur stdDeviation="150" result="effect1_foregroundBlur_269_370"/>
</filter>
<filter id="filter1_f_269_370" x="-58" y="106" width="1196" height="638" filterUnits="userSpaceOnUse" color-interpolation-filters="sRGB">
<feFlood flood-opacity="0" result="BackgroundImageFix"/>
<feBlend mode="normal" in="SourceGraphic" in2="BackgroundImageFix" result="shape"/>
<feGaussianBlur stdDeviation="150" result="effect1_foregroundBlur_269_370"/>
</filter>
<filter id="filter2_f_269_370" x="181" y="258" width="717.058" height="306" filterUnits="userSpaceOnUse" color-interpolation-filters="sRGB">
<feFlood flood-opacity="0" result="BackgroundImageFix"/>
<feBlend mode="normal" in="SourceGraphic" in2="BackgroundImageFix" result="shape"/>
<feGaussianBlur stdDeviation="26.5" result="effect1_foregroundBlur_269_370"/>
</filter>
<filter id="filter3_d_269_370" x="682.862" y="370.32" width="167.699" height="147.387" filterUnits="userSpaceOnUse" color-interpolation-filters="sRGB">
<feFlood flood-opacity="0" result="BackgroundImageFix"/>
<feColorMatrix in="SourceAlpha" type="matrix" values="0 0 0 0 0 0 0 0 0 0 0 0 0 0 0 0 0 0 127 0" result="hardAlpha"/>
<feOffset dy="4"/>
<feGaussianBlur stdDeviation="2"/>
<feComposite in2="hardAlpha" operator="out"/>
<feColorMatrix type="matrix" values="0 0 0 0 0 0 0 0 0 0 0 0 0 0 0 0 0 0 0.25 0"/>
<feBlend mode="normal" in2="BackgroundImageFix" result="effect1_dropShadow_269_370"/>
<feBlend mode="normal" in="SourceGraphic" in2="effect1_dropShadow_269_370" result="shape"/>
</filter>
<filter id="filter4_f_269_370" x="210.5" y="287.5" width="658.064" height="247" filterUnits="userSpaceOnUse" color-interpolation-filters="sRGB">
<feFlood flood-opacity="0" result="BackgroundImageFix"/>
<feBlend mode="normal" in="SourceGraphic" in2="BackgroundImageFix" result="shape"/>
<feGaussianBlur stdDeviation="9.5" result="effect1_foregroundBlur_269_370"/>
</filter>
<filter id="filter5_d_269_370" x="679.859" y="367.32" width="173.705" height="153.387" filterUnits="userSpaceOnUse" color-interpolation-filters="sRGB">
<feFlood flood-opacity="0" result="BackgroundImageFix"/>
<feColorMatrix in="SourceAlpha" type="matrix" values="0 0 0 0 0 0 0 0 0 0 0 0 0 0 0 0 0 0 127 0" result="hardAlpha"/>
<feOffset dy="4"/>
<feGaussianBlur stdDeviation="2"/>
<feComposite in2="hardAlpha" operator="out"/>
<feColorMatrix type="matrix" values="0 0 0 0 0 0 0 0 0 0 0 0 0 0 0 0 0 0 0.25 0"/>
<feBlend mode="normal" in2="BackgroundImageFix" result="effect1_dropShadow_269_370"/>
<feBlend mode="normal" in="SourceGraphic" in2="effect1_dropShadow_269_370" result="shape"/>
</filter>
<filter id="filter6_f_269_370" x="213.5" y="290.5" width="652.059" height="241" filterUnits="userSpaceOnUse" color-interpolation-filters="sRGB">
<feFlood flood-opacity="0" result="BackgroundImageFix"/>
<feBlend mode="normal" in="SourceGraphic" in2="BackgroundImageFix" result="shape"/>
<feGaussianBlur stdDeviation="10" result="effect1_foregroundBlur_269_370"/>
</filter>
<filter id="filter7_d_269_370" x="683.862" y="371.32" width="165.697" height="145.387" filterUnits="userSpaceOnUse" color-interpolation-filters="sRGB">
<feFlood flood-opacity="0" result="BackgroundImageFix"/>
<feColorMatrix in="SourceAlpha" type="matrix" values="0 0 0 0 0 0 0 0 0 0 0 0 0 0 0 0 0 0 127 0" result="hardAlpha"/>
<feOffset dy="4"/>
<feGaussianBlur stdDeviation="2"/>
<feComposite in2="hardAlpha" operator="out"/>
<feColorMatrix type="matrix" values="0 0 0 0 0 0 0 0 0 0 0 0 0 0 0 0 0 0 0.25 0"/>
<feBlend mode="normal" in2="BackgroundImageFix" result="effect1_dropShadow_269_370"/>
<feBlend mode="normal" in="SourceGraphic" in2="effect1_dropShadow_269_370" result="shape"/>
</filter>
</defs>
</svg>
