<svg width="57" height="56" viewBox="0 0 57 56" fill="none" xmlns="http://www.w3.org/2000/svg">
<path d="M17.39 55.7001C15.8665 55.7001 14.5623 55.1576 13.4774 54.0727C12.3925 52.9878 11.85 51.6835 11.85 50.16C11.85 48.6365 12.3925 47.3323 13.4774 46.2474C14.5623 45.1625 15.8665 44.62 17.39 44.62C18.9135 44.62 20.2177 45.1625 21.3026 46.2474C22.3876 47.3323 22.93 48.6365 22.93 50.16C22.93 51.6835 22.3876 52.9878 21.3026 54.0727C20.2177 55.1576 18.9135 55.7001 17.39 55.7001ZM45.09 55.7001C43.5665 55.7001 42.2623 55.1576 41.1774 54.0727C40.0925 52.9878 39.55 51.6835 39.55 50.16C39.55 48.6365 40.0925 47.3323 41.1774 46.2474C42.2623 45.1625 43.5665 44.62 45.09 44.62C46.6135 44.62 47.9177 45.1625 49.0026 46.2474C50.0876 47.3323 50.63 48.6365 50.63 50.16C50.63 51.6835 50.0876 52.9878 49.0026 54.0727C47.9177 55.1576 46.6135 55.7001 45.09 55.7001ZM15.0355 11.38L21.6835 25.23H41.0735L48.691 11.38H15.0355ZM12.404 5.84005H53.2615C54.3234 5.84005 55.1313 6.31326 55.6853 7.25967C56.2393 8.20609 56.2624 9.16405 55.7545 10.1335L45.921 27.8615C45.4132 28.7849 44.7322 29.5005 43.8781 30.0083C43.0241 30.5161 42.0892 30.77 41.0735 30.77H20.437L17.39 36.31H50.63V41.85H17.39C15.3125 41.85 13.7429 40.9383 12.681 39.1147C11.6192 37.2911 11.573 35.479 12.5425 33.6786L16.282 26.892L6.31002 5.84005H0.77002V0.300049H9.77252L12.404 5.84005Z" fill="#1C1B1F"/>
</svg>
